HIERARCHY
ROOT joint_Root
{
	OFFSET 0.0 0.0 0.0
	CHANNELS 6 Xposition Yposition Zposition Zrotation Xrotation Yrotation 
	JOINT Hips
	{
		OFFSET -17.1583 93.1646 452.98
		CHANNELS 6 Xposition Yposition Zposition Zrotation Xrotation Yrotation 
		JOINT Spine
		{
			OFFSET 15.7357 0.0 0.0
			CHANNELS 6 Xposition Yposition Zposition Zrotation Xrotation Yrotation 
			JOINT Chest
			{
				OFFSET 8.98455 -0.406207 0.0
				CHANNELS 6 Xposition Yposition Zposition Zrotation Xrotation Yrotation 
				JOINT Neck
				{
					OFFSET 16.3773 0.0 0.0
					CHANNELS 6 Xposition Yposition Zposition Zrotation Xrotation Yrotation 
					JOINT Head
					{
						OFFSET 6.45672 0.0 0.0
						CHANNELS 6 Xposition Yposition Zposition Zrotation Xrotation Yrotation 
						End Site
						{
							OFFSET 0.0 0.0 0.0
						}
					}
				}
				JOINT Shoulder_L
				{
					OFFSET 12.9942 -0.242716 4.98039
					CHANNELS 6 Xposition Yposition Zposition Zrotation Xrotation Yrotation 
					JOINT UpperArm_L
					{
						OFFSET 5.34809 0.0 0.0
						CHANNELS 6 Xposition Yposition Zposition Zrotation Xrotation Yrotation 
						JOINT LowerArm_L
						{
							OFFSET 24.3286 1.87007e-05 0.0
							CHANNELS 6 Xposition Yposition Zposition Zrotation Xrotation Yrotation 
							JOINT Hand_L
							{
								OFFSET 22.2916 0.0 0.0
								CHANNELS 6 Xposition Yposition Zposition Zrotation Xrotation Yrotation 
								End Site
								{
									OFFSET 0.0 0.0 0.0
								}
							}
						}
					}
				}
				JOINT Shoulder_R
				{
					OFFSET 12.9945 -0.242716 -4.98039
					CHANNELS 6 Xposition Yposition Zposition Zrotation Xrotation Yrotation 
					JOINT UpperArm_R
					{
						OFFSET -5.34813 0.0 0.0
						CHANNELS 6 Xposition Yposition Zposition Zrotation Xrotation Yrotation 
						JOINT LowerArm_R
						{
							OFFSET -24.3289 0.000322201 0.0
							CHANNELS 6 Xposition Yposition Zposition Zrotation Xrotation Yrotation 
							JOINT Hand_R
							{
								OFFSET -22.2915 -0.000108084 0.0
								CHANNELS 6 Xposition Yposition Zposition Zrotation Xrotation Yrotation 
								End Site
								{
									OFFSET 0.0 0.0 0.0
								}
							}
						}
					}
				}
			}
		}
		JOINT UpperLeg_L
		{
			OFFSET -2.19248 -6.46944 0.0
			CHANNELS 6 Xposition Yposition Zposition Zrotation Xrotation Yrotation 
			JOINT LowerLeg_L
			{
				OFFSET 39.0811 0.0 -1.23785e-05
				CHANNELS 6 Xposition Yposition Zposition Zrotation Xrotation Yrotation 
				JOINT Foot_L
				{
					OFFSET 40.9854 0.0 -1.26872e-05
					CHANNELS 6 Xposition Yposition Zposition Zrotation Xrotation Yrotation 
					JOINT Toes_L
					{
						OFFSET 11.7543 0.0 0.0
						CHANNELS 6 Xposition Yposition Zposition Zrotation Xrotation Yrotation 
						End Site
						{
							OFFSET 0.0 0.0 0.0
						}
					}
				}
			}
		}
		JOINT UpperLeg_R
		{
			OFFSET -2.19251 6.46944 0.0
			CHANNELS 6 Xposition Yposition Zposition Zrotation Xrotation Yrotation 
			JOINT LowerLeg_R
			{
				OFFSET -39.0811 -0.00228153 -0.0401928
				CHANNELS 6 Xposition Yposition Zposition Zrotation Xrotation Yrotation 
				JOINT Foot_R
				{
					OFFSET -40.9854 0.0 0.0
					CHANNELS 6 Xposition Yposition Zposition Zrotation Xrotation Yrotation 
					JOINT Toes_R
					{
						OFFSET -11.7543 0.0 0.0
						CHANNELS 6 Xposition Yposition Zposition Zrotation Xrotation Yrotation 
						End Site
						{
							OFFSET 0.0 0.0 0.0
						}
					}
				}
			}
		}
	}
}
MOTION
Frames:	6
Frame Time:	0.0333333
0.000000 0.000000 0.000000 0.000000 0.000000 -0.000000 -0.032093 85.097200 9.770410 87.446100 -3.368920 -3.116570 15.735700 0.000005 -0.000001 102.847000 83.614000 -101.390000 8.984550 -0.406207 -0.000000 4.656750 2.795190 2.797470 16.377300 -0.000001 -0.000001 -2.337810 2.832570 -0.850081 6.456720 -0.000001 -0.000000 -10.554200 2.512740 -2.954390 12.994200 -0.242716 4.980390 -93.817300 10.344400 -69.615700 5.348090 -0.000007 -0.000001 -51.140200 -29.116600 20.736700 24.328600 0.000019 0.000005 53.891600 15.612000 -78.893400 22.291600 -0.000001 0.000005 37.956800 4.022450 23.907000 12.994500 -0.242716 -4.980390 87.769800 6.704710 -71.553300 -5.348130 -0.000001 -0.000004 -64.773700 0.056816 -0.709134 -24.328900 0.000322 -0.000009 9.201160 4.153730 -65.912400 -22.291500 -0.000108 -0.000004 54.441600 5.330730 -0.806585 -2.192480 -6.469440 -0.000000 -175.401000 -2.885850 -38.552900 39.081100 -0.000007 -0.000012 0.049129 0.007085 98.194000 40.985400 -0.000006 -0.000013 -7.937510 0.315359 -51.570500 11.754300 -0.000000 0.000003 0.002487 0.082959 -13.212400 -2.192510 6.469440 -0.000001 -174.111000 3.514240 168.853000 -39.081100 -0.002282 -0.040193 -0.022066 0.021337 49.872800 -40.985400 0.000008 0.000006 -2.455000 2.589030 -86.676600 -11.754300 -0.000006 -0.000006 0.001962 0.045254 -14.737500
0.000000 0.000000 0.000000 0.000000 0.000000 -0.000000 0.628319 88.345700 19.058100 90.826700 -3.024450 -5.787210 15.735700 0.000005 -0.000001 113.633000 84.341800 -113.581000 8.984550 -0.406207 -0.000000 2.606640 4.530270 0.002030 16.377300 -0.000001 -0.000001 -2.470150 1.698620 0.022284 6.456720 -0.000001 -0.000000 -10.338600 0.300247 -2.336100 12.994200 -0.242716 4.980390 -93.510800 9.318830 -69.249200 5.348090 -0.000007 -0.000001 -45.391700 -30.804800 25.438100 24.328600 0.000019 0.000005 52.502400 17.470600 -77.028400 22.291600 -0.000001 0.000005 39.800000 4.059610 23.374200 12.994500 -0.242716 -4.980390 88.217300 5.451100 -71.859600 -5.348130 -0.000001 -0.000004 -65.999400 1.477300 -1.125120 -24.328900 0.000322 -0.000009 10.434100 3.097690 -73.646300 -22.291500 -0.000108 -0.000004 53.566800 5.325880 -0.666131 -2.192480 -6.469440 -0.000000 179.834000 -0.127751 -43.157200 39.081100 -0.000007 -0.000012 -0.055204 0.003824 86.046000 40.985400 -0.000006 -0.000013 -6.522100 -5.962630 -57.849800 11.754300 -0.000000 0.000003 0.002483 0.080521 -13.311200 -2.192510 6.469440 -0.000001 -179.515000 6.005500 176.346000 -39.081100 -0.002282 -0.040193 -0.010411 0.017119 38.654600 -40.985400 0.000008 0.000006 -3.517560 5.005710 -74.918200 -11.754300 -0.000006 -0.000006 -0.018052 -0.156249 -22.953400
0.000000 0.000000 0.000000 0.000000 0.000000 -0.000000 1.203300 91.617200 28.117700 93.997000 -2.516490 -9.640370 15.735700 0.000005 -0.000001 127.706000 85.258900 -129.069000 8.984550 -0.406207 -0.000000 -0.189834 5.892680 -2.715810 16.377300 -0.000001 -0.000001 -2.696180 0.556295 0.456902 6.456720 -0.000001 -0.000000 -9.762950 -1.727700 -1.454440 12.994200 -0.242716 4.980390 -92.969600 7.782280 -69.037900 5.348090 -0.000007 -0.000001 -40.975300 -31.079000 29.014800 24.328600 0.000019 0.000005 51.511400 19.552900 -75.098500 22.291600 -0.000001 0.000005 40.382600 4.097790 22.820600 12.994500 -0.242716 -4.980390 88.806600 3.756310 -72.361400 -5.348130 -0.000001 -0.000004 -67.620100 2.138420 -0.744805 -24.328900 0.000322 -0.000009 11.417700 2.500080 -77.814500 -22.291500 -0.000108 -0.000004 52.672900 5.368450 -1.941610 -2.192480 -6.469440 -0.000000 176.688000 3.647840 -46.180800 39.081100 -0.000007 -0.000012 -0.066939 0.025176 69.393000 40.985400 -0.000006 -0.000013 -5.038860 -9.940430 -61.599200 11.754300 -0.000000 0.000003 0.002479 0.088697 -12.979700 -2.192510 6.469440 -0.000001 176.469000 8.220400 -178.863000 -39.081100 -0.002282 -0.040193 0.013911 -0.020579 27.259400 -40.985400 0.000008 0.000006 -1.763810 4.694140 -57.305300 -11.754300 -0.000006 -0.000006 -0.062824 -0.340845 -30.659700
0.000000 0.000000 0.000000 0.000000 0.000000 -0.000000 1.199330 94.026100 37.338500 94.013400 -1.437560 -11.175800 15.735700 0.000005 -0.000001 137.393000 85.299200 -139.024000 8.984550 -0.406207 -0.000000 -1.300660 7.047220 -3.183820 16.377300 -0.000001 -0.000001 -2.960040 -0.296074 0.527344 6.456720 -0.000001 -0.000000 -9.995410 -3.662680 -1.045970 12.994200 -0.242716 4.980390 -92.830800 7.255060 -68.617400 5.348090 -0.000007 -0.000001 -37.217500 -31.609900 30.759800 24.328600 0.000019 0.000005 49.784000 20.856900 -73.245800 22.291600 -0.000001 0.000005 39.346900 4.103180 22.742400 12.994500 -0.242716 -4.980390 89.069100 3.039970 -72.965000 -5.348130 -0.000001 -0.000004 -68.029000 2.235570 -0.198983 -24.328900 0.000322 -0.000009 10.184200 1.982580 -79.102100 -22.291500 -0.000108 -0.000004 52.157400 5.365950 -1.862000 -2.192480 -6.469440 -0.000000 178.228000 6.716330 -44.579800 39.081100 -0.000007 -0.000012 -0.026632 0.022147 50.258200 40.985400 -0.000006 -0.000013 -4.317510 -6.410400 -62.382100 11.754300 -0.000000 0.000003 0.002477 0.089293 -12.955600 -2.192510 6.469440 -0.000001 176.756000 8.543180 -174.266000 -39.081100 -0.002282 -0.040193 0.020783 -0.049408 19.463500 -40.985400 0.000008 0.000006 0.481682 3.033170 -38.474600 -11.754300 -0.000006 -0.000006 -0.021201 -0.173852 -23.678400
0.000000 0.000000 0.000000 0.000000 0.000000 -0.000000 0.685444 94.854600 47.142500 91.202300 -0.135747 -9.650110 15.735700 0.000005 -0.000001 137.060000 84.714400 -137.693000 8.984550 -0.406207 -0.000000 -0.518469 7.782930 -1.231050 16.377300 -0.000001 -0.000001 -3.332840 -0.676313 0.260624 6.456720 -0.000001 -0.000000 -10.626300 -4.885140 -1.788820 12.994200 -0.242716 4.980390 -93.052600 7.602090 -68.045400 5.348090 -0.000007 -0.000001 -34.901200 -32.321100 31.824300 24.328600 0.000019 0.000005 49.321000 22.163800 -72.034700 22.291600 -0.000001 0.000005 39.194000 4.099620 22.794100 12.994500 -0.242716 -4.980390 89.064600 3.119240 -73.297700 -5.348130 -0.000001 -0.000004 -67.269900 2.277300 -0.028254 -24.328900 0.000322 -0.000009 8.692760 1.898150 -77.778700 -22.291500 -0.000108 -0.000004 51.006200 5.363100 -1.775920 -2.192480 -6.469440 -0.000000 -177.820000 7.738810 -38.907700 39.081100 -0.000007 -0.000012 -0.027019 0.042712 32.317300 40.985400 -0.000006 -0.000013 -6.060510 1.156500 -65.812900 11.754300 -0.000000 0.000003 0.002487 0.085134 -13.124200 -2.192510 6.469440 -0.000001 -179.429000 6.752550 -170.548000 -39.081100 -0.002282 -0.040193 0.023544 -0.054397 20.393800 -40.985400 0.000008 0.000006 -1.384280 -2.888030 -25.741100 -11.754300 -0.000006 -0.000006 -0.001800 0.193857 -8.708610
0.000000 0.000000 0.000000 0.000000 0.000000 -0.000000 0.484229 94.602500 56.786600 89.295100 -0.959722 -9.311410 15.735700 0.000005 -0.000001 140.454000 84.304900 -140.486000 8.984550 -0.406207 -0.000000 -0.507858 8.783560 -0.024299 16.377300 -0.000001 -0.000001 -4.234610 -0.600803 0.248469 6.456720 -0.000001 -0.000000 -9.911350 -5.046990 -2.197070 12.994200 -0.242716 4.980390 -93.047300 7.590230 -68.048800 5.348090 -0.000007 -0.000001 -34.788200 -33.605100 33.630700 24.328600 0.000019 0.000005 48.364800 22.670000 -71.087500 22.291600 -0.000001 0.000005 39.997300 4.090680 22.924100 12.994500 -0.242716 -4.980390 89.190100 2.828920 -74.017000 -5.348130 -0.000001 -0.000004 -67.906100 1.495810 0.682325 -24.328900 0.000322 -0.000009 9.191060 2.852470 -72.907000 -22.291500 -0.000108 -0.000004 51.850000 5.388230 -2.554800 -2.192480 -6.469440 -0.000000 -176.060000 5.338510 -33.528600 39.081100 -0.000007 -0.000012 -0.037064 0.122653 16.813800 40.985400 -0.000006 -0.000013 -10.260400 9.411810 -69.969400 11.754300 -0.000000 0.000003 0.002483 0.087239 -13.038800 -2.192510 6.469440 -0.000001 -177.654000 5.739560 -171.057000 -39.081100 -0.002282 -0.040193 0.035320 -0.054692 30.346700 -40.985400 0.000008 0.000006 -3.995900 -3.844580 -28.447200 -11.754300 -0.000006 -0.000006 -0.001264 0.186754 -8.997390
